<svg width="20" height="20" viewBox="0 0 20 20" version="1.1" xmlns="http://www.w3.org/2000/svg" xmlns:xlink="http://www.w3.org/1999/xlink">
<g data-name="Canvas" fill="none">
<g data-name="Group 2">
<g data-name="Ellipse">
<circle cx="10" cy="10" r="10" fill="#EF1E26"/>
</g>
<g data-name="&#208;&#173;&#208;&#187;. &#208;&#191;&#208;&#190;&#209;&#135;&#209;&#130;&#208;&#176;">
<path d="M 0 9L 0 0L 5.15247 0L 5.15247 0.953975L 1.13004 0.953975L 1.13004 3.8159L 2.95964 3.8159C 3.91928 3.8159 4.66592 4.03347 5.19955 4.46862C 5.73318 4.89958 6 5.51464 6 6.31381C 6 7.14226 5.71973 7.79707 5.15919 8.27824C 4.59865 8.75941 3.83408 9 2.86547 9L 0 9ZM 1.13004 4.76987L 1.13004 8.04603L 2.71749 8.04603C 3.38565 8.04603 3.90135 7.89958 4.26457 7.60669C 4.6278 7.31381 4.80942 6.90377 4.80942 6.37657C 4.80942 5.30544 4.11211 4.76987 2.71749 4.76987L 1.13004 4.76987Z" transform="translate(7 6)" fill="white"/>
</g>
</g>
</g>
</svg>

