<svg width="28" height="26" viewBox="0 0 28 26" version="1.1" xmlns="http://www.w3.org/2000/svg" xmlns:xlink="http://www.w3.org/1999/xlink">
<g id="Canvas" fill="none">
<g id="Union">
<path fill-rule="evenodd" clip-rule="evenodd" d="M 14 4.53624L 13.2919 3.8261C 12.8447 3.37766 11.9522 2.65771 10.8086 2.05451C 9.66403 1.45084 8.33611 1 7 1C 3.61237 1 1 3.78901 1 7.28C 1 9.41473 1.78812 11.5946 3.04636 13.7044C 4.30202 15.8098 5.99133 17.7872 7.70623 19.4979C 9.41805 21.2055 11.1337 22.626 12.4232 23.6203C 13.061 24.1122 13.5925 24.4982 13.9649 24.7614C 13.9701 24.7573 13.9754 24.7531 13.9808 24.7489C 14.356 24.4517 14.8941 24.0166 15.5408 23.4684C 16.8357 22.3706 18.5586 20.8254 20.278 19.0312C 22.0009 17.2333 23.6986 15.2078 24.96 13.1507C 26.2306 11.0786 27 9.06871 27 7.28C 27 3.78901 24.3876 1 21 1C 19.6639 1 18.336 1.45084 17.1914 2.05451C 16.0478 2.65771 15.1553 3.37766 14.7081 3.8261L 14 4.53624Z" stroke-width="2" stroke-miterlimit="8" stroke="#2D5FA3"/>
</g>
</g>
</svg>

