<svg xmlns="http://www.w3.org/2000/svg" xmlns:xlink="http://www.w3.org/1999/xlink" width="26" height="28" viewBox="0 0 26 28">
    <desc>
        Created using Figma
    </desc>
    <use fill="#2D5FA3" transform="matrix(.96552 0 0 .96552 .037 0)" xlink:href="#a"/>
    <defs>
        <path id="a" fill-rule="evenodd" d="M9.592 5.2C9.953 3.294 11.429 2 13.008 2s3.055 1.294 3.416 3.2H9.592zm-2.023 0C7.958 2.343 10.152 0 13.008 0c2.855 0 5.05 2.343 5.438 5.2h3.57a4 4 0 0 1 3.972 4.462l-1.838 15.8A4 4 0 0 1 20.177 29H5.839a4 4 0 0 1-3.974-3.538L.027 9.662A4 4 0 0 1 4 5.2h3.57z"/>
    </defs>
</svg>
