<svg width="24" height="20" viewBox="0 0 24 20" version="1.1" xmlns="http://www.w3.org/2000/svg" xmlns:xlink="http://www.w3.org/1999/xlink">
<g data-name="Canvas" fill="none">
<g data-name="noun_1220030_cc">
<g data-name="Group">
<g data-name="Shape">
<g transform="scale(0.963114)">
<use xlink:href="#path0" fill="#2D5FA3"/>
</g>
</g>
<g data-name="Shape">
<g transform="translate(8.54387 2.04606) scale(0.963114)">
<use xlink:href="#path1" fill="#2D5FA3"/>
</g>
</g>
</g>
</g>
</g>
<defs>

<path id="path0" fill-rule="evenodd" clip-rule="evenodd" d="M 24.913 15.9698C 24.8885 15.8477 24.8397 15.7256 24.7421 15.6523L 16.9042 9.37674C 17.7098 8.37558 18.1981 7.13022 18.1981 5.73837C 18.1981 2.56396 15.6337 0 12.4598 0C 9.28502 0 6.72155 2.56396 6.72155 5.73837C 6.72155 7.13022 7.20983 8.39999 8.03991 9.37674L 0.177602 15.6523C 0.079946 15.7256 0.0067038 15.8477 0.0067038 15.9942C -0.0186868 16.1163 0.0311179 16.2628 0.10436 16.3605L 2.4237 19.2663C 2.59459 19.4861 2.91198 19.5105 3.10729 19.3395L 7.86901 15.5302L 7.86901 20.243C 7.86901 20.5116 8.08873 20.7314 8.35729 20.7314L 16.538 20.7314C 16.8065 20.7314 17.0262 20.5116 17.0262 20.243L 17.0262 15.4814L 21.788 19.2907C 22.0077 19.4616 22.3006 19.4128 22.4715 19.2174L 24.7909 16.3116C 24.8885 16.214 24.9374 16.0919 24.913 15.9698ZM 7.69811 5.73837C 7.69811 3.10117 9.82213 0.976746 12.4598 0.976746C 15.0965 0.976746 17.2215 3.10117 17.2215 5.73837C 17.2215 8.37558 15.0965 10.5 12.4598 10.5C 9.82213 10.5 7.69811 8.35117 7.69811 5.73837ZM 16.8553 14.0895L 22.0321 18.2407L 23.7411 16.1163L 16.245 10.1093L 16.2206 10.0849C 15.3173 10.8663 14.1932 11.3791 12.9237 11.4767C 12.9237 11.4987 12.9286 11.5206 12.9344 11.5448C 12.9403 11.5744 12.9481 11.6073 12.9481 11.6477L 12.9481 18.4849C 12.9481 18.7535 12.7284 18.9732 12.4598 18.9732C 12.1913 18.9732 11.9715 18.7535 11.9715 18.4849L 11.9715 11.6477C 11.9715 11.5744 11.996 11.5012 12.0204 11.4279C 10.7753 11.3302 9.6278 10.8419 8.7235 10.0605C 8.71373 10.0698 8.70885 10.0791 8.70397 10.0871C 8.69518 10.0999 8.68932 10.1093 8.67467 10.1093L 1.20299 16.1163L 2.91198 18.2651L 8.08873 14.114C 8.23522 14.0163 8.43053 13.9919 8.60143 14.0651C 8.77233 14.1384 8.86998 14.3093 8.86998 14.5046L 8.86998 19.7302L 16.0741 19.7302L 16.0741 14.4802C 16.0741 14.2849 16.1717 14.114 16.3426 14.0407C 16.5135 13.943 16.7089 13.9674 16.8553 14.0895Z"/>
<path id="path1" fill-rule="evenodd" clip-rule="evenodd" d="M 7.20312 3.58954C 7.20312 5.59186 5.56738 7.20349 3.58984 7.20349C 1.61133 7.20349 0 5.59186 0 3.61395C 0 1.63605 1.61133 0 3.58984 0C 5.56738 0 7.20312 1.58722 7.20312 3.58954ZM 6.22656 3.61395C 6.22656 2.14883 5.03027 0.976746 3.58887 0.976746C 2.14844 0.976746 0.976562 2.17325 0.976562 3.61395C 0.976562 5.05466 2.14844 6.22675 3.58887 6.22675C 5.03027 6.22675 6.22656 5.07907 6.22656 3.61395Z"/>

</defs>
</svg>

