<svg width="15" height="20" viewBox="0 0 15 20" version="1.1" xmlns="http://www.w3.org/2000/svg" xmlns:xlink="http://www.w3.org/1999/xlink">
<g data-name="Canvas" fill="none">
<g data-name="noun_1220027_cc">
<g data-name="Group">
<g data-name="Shape">
<g transform="translate(9.06326 0) scale(0.962337)">
<use xlink:href="#path0" fill="#2D5FA3"/>
</g>
</g>
<g data-name="Shape">
<g transform="translate(0 4.16729) scale(0.962337)">
<use xlink:href="#path1" fill="#2D5FA3"/>
</g>
</g>
</g>
</g>
</g>
<defs>

<path id="path0" fill-rule="evenodd" clip-rule="evenodd" d="M 2.17285 4.34482C 0.96582 4.34482 0 3.3793 0 2.17242C 0 0.989655 0.96582 0 2.17285 0C 3.37891 0 4.34473 0.965515 4.34473 2.17242C 4.34473 3.3793 3.37891 4.34482 2.17285 4.34482ZM 3.37988 2.17242C 3.37988 1.49655 2.84863 0.965515 2.17285 0.965515C 1.52051 0.965515 0.96582 1.49655 0.96582 2.17242C 0.96582 2.84827 1.49707 3.3793 2.17285 3.3793C 2.84863 3.3793 3.37988 2.84827 3.37988 2.17242Z"/>
<path id="path1" fill-rule="evenodd" clip-rule="evenodd" d="M 13.6414 15.342C 13.7137 15.3662 13.8103 15.342 13.8826 15.2696C 14.0271 15.1489 14.1961 14.8834 14.2205 14.5696L 15.1863 14.642C 15.1375 15.2696 14.8963 15.8006 14.4861 16.1386C 14.2449 16.3558 13.9549 16.4524 13.6658 16.4524L 13.617 16.4524L 7.58279 16.4524L 7.53397 16.4524C 7.2449 16.4524 6.95486 16.3317 6.71365 16.1386C 6.3035 15.8006 6.06229 15.2696 6.01346 14.642L 6.97928 14.5696C 7.00369 14.98 7.17264 15.2455 7.31717 15.3662C 7.38943 15.4144 7.4617 15.4386 7.53397 15.4386L 9.12772 15.4386L 10.2381 11.311L 8.64432 10.611L 0.99295 11.0938L 0.99295 12.8799L 0.824005 12.8799L 0.99295 12.9041C 0.968536 12.9765 0.99295 13.0731 1.06522 13.1455C 1.18631 13.2903 1.45193 13.4593 1.86209 13.4834L 1.78983 14.4489C 1.1619 14.4006 0.630646 14.1593 0.292755 13.7489C 0.100372 13.4834 -0.0207214 13.1696 0.00369264 12.8558L 0.00369264 10.611L 0.00369264 10.5869L 0.00369264 6.84546C -0.0207214 6.53168 0.0759583 6.2179 0.292755 5.95236C 0.630646 5.54203 1.1619 5.30063 1.78983 5.25238L 1.86209 6.2179C 1.45193 6.24204 1.18631 6.41098 1.06522 6.55582C 1.01736 6.62824 0.99295 6.70066 0.99295 6.77307L 0.99295 8.10065L 6.47244 7.73859L 7.58279 3.90064L 3.76932 5.01099C 3.50369 5.08341 3.23807 4.93857 3.1658 4.67307L 2.61014 2.76618C 2.58572 2.64548 2.58572 2.52478 2.65897 2.40409C 2.73123 2.28342 2.82791 2.18686 2.94803 2.16272L 8.57205 0.497195L 8.59647 0.352358C 8.64432 0.231692 8.71756 0.135134 8.83768 0.062716C 8.93436 -0.0097022 9.07889 -0.0097022 9.19998 0.0144372L 11.8064 0.762728C 11.9275 0.810977 12.0242 0.883395 12.0965 1.00409C 12.1687 1.10065 12.1687 1.24549 12.1443 1.36615L 10.2381 8.00409L 13.0379 9.25928L 13.3035 9.33167C 13.4236 9.35581 13.5203 9.42823 13.5935 9.54892C 13.6658 9.64548 13.6658 9.79029 13.6414 9.91098L 12.1687 15.342L 13.617 15.342L 13.617 15.511L 13.6414 15.342ZM 11.2762 11.0938L 10.1414 15.3179L 11.1795 15.3179L 12.5789 10.1041L 9.44119 8.7041C 9.2244 8.60755 9.1033 8.36615 9.17557 8.12479L 11.0828 1.55927L 9.39334 1.07651C 9.34451 1.22135 9.2244 1.3179 9.07889 1.36615L 3.67264 2.95926L 3.9617 3.94892L 8.1619 2.7179C 8.33084 2.66962 8.5242 2.7179 8.64432 2.83856C 8.76541 2.95926 8.81326 3.15238 8.76541 3.32135L 7.31717 8.3179C 7.26834 8.51099 7.07596 8.63169 6.8826 8.65583L 1.01736 9.01789L 0.99295 10.0317L 8.64432 9.54892C 8.69315 9.54892 8.76541 9.54892 8.81326 9.57306L 8.93436 9.5972C 8.94705 9.5972 8.95877 9.60324 8.97049 9.60926C 8.98221 9.6153 8.99393 9.62134 9.00662 9.62134L 11.0105 10.5386C 11.2273 10.6351 11.3484 10.8524 11.2762 11.0938Z"/>

</defs>
</svg>

