<svg width="22" height="20" viewBox="0 0 22 20" version="1.1" xmlns="http://www.w3.org/2000/svg" xmlns:xlink="http://www.w3.org/1999/xlink">
<g data-name="Canvas" fill="none">
<g data-name="noun_1220031_cc">
<g data-name="Group">
<g data-name="Shape">
<g transform="translate(9.20882 0) scale(0.957149)">
<use xlink:href="#path0" fill="#2D5FA3"/>
</g>
</g>
<g data-name="Shape">
<g transform="translate(0 3.5067) scale(0.957149)">
<use xlink:href="#path1" fill="#2D5FA3"/>
</g>
</g>
</g>
</g>
</g>
<defs>

<path id="path0" fill-rule="evenodd" clip-rule="evenodd" d="M 2.08187 3.8028L 1.90707 3.8028C 0.915855 3.8028 0.0984723 3.04447 0.0115582 2.08198C -0.105629 1.03196 0.682457 0.0986418 1.73226 0.0111174C 2.81136 -0.105521 3.71566 0.71113 3.80257 1.73197C 3.91976 2.78196 3.13168 3.71531 2.08187 3.8028ZM 1.90804 1.1778L 1.84945 1.1778C 1.44125 1.20698 1.14925 1.55699 1.17855 1.96531C 1.20785 2.37364 1.55746 2.66529 1.96566 2.63615C 2.37484 2.60697 2.66586 2.25697 2.63656 1.84864C 2.60824 1.46946 2.28695 1.1778 1.90804 1.1778Z"/>
<path id="path1" fill-rule="evenodd" clip-rule="evenodd" d="M 12.3166 12.0974L 22.2336 8.74328C 22.5539 8.65579 22.8752 8.83078 22.9621 9.12243C 23.05 9.41412 22.8752 9.73495 22.5832 9.85162L 1.78733 16.8516C 1.72874 16.8808 1.67112 16.8808 1.61253 16.8808C 1.46702 16.8808 1.32054 16.7933 1.20433 16.6766L 1.17503 16.6475C 0.50413 16.0933 0.0959273 15.3058 0.00803669 14.4308C -0.0505571 13.5558 0.212138 12.71 0.766826 12.0391C 0.970927 11.8058 1.34983 11.7766 1.58323 11.9808C 1.81663 12.1849 1.84593 12.5641 1.64183 12.7975C 1.26194 13.235 1.08714 13.7891 1.14573 14.3433C 1.20433 14.8391 1.40843 15.3058 1.75804 15.6558L 9.28343 13.1183L 7.38694 8.10162C 7.32933 7.95578 7.32933 7.78079 7.38694 7.66412C 7.44554 7.54745 7.56272 7.43078 7.70823 7.37243L 9.45823 6.70159C 9.54612 6.64328 9.60374 6.6141 9.69163 6.6141C 9.80784 6.58496 9.92503 6.58496 10.0412 6.64328L 11.8498 6.90579L 11.5295 5.7391C 11.4416 5.79745 11.3244 5.82659 11.2082 5.82659L 7.50413 5.85577C 7.35862 5.85577 7.21214 5.79745 7.09593 5.68078C 6.97874 5.56411 6.92112 5.41827 6.92112 5.27246L 6.89183 3.23077C 6.89183 2.90994 7.15452 2.64746 7.47483 2.64746L 10.1584 2.61828L 10.6252 2.18078L 10.3918 1.33496C 10.3625 1.18911 10.3625 1.01409 10.4494 0.897457C 10.5373 0.780788 10.6545 0.664119 10.8 0.634945L 13.133 0.0224567C 13.425 -0.0650677 13.7453 0.109951 13.8332 0.430782L 14.4162 2.6766L 20.0461 2.20996L 19.9582 1.15994C 19.9289 0.839107 20.1623 0.547451 20.4836 0.518276C 20.8039 0.489101 21.0959 0.722438 21.1252 1.04327L 21.1828 2.09329L 21.8537 2.03494C 22.175 2.00576 22.467 2.2391 22.4953 2.55993C 22.5246 2.88076 22.2912 3.17245 21.9709 3.20159L 21.3 3.25994L 21.3869 4.30993C 21.4162 4.63076 21.1828 4.92245 20.8625 4.95159L 20.8039 4.95159C 20.5119 4.95159 20.2502 4.71829 20.2209 4.4266L 20.133 3.37661L 14.7082 3.84329L 16.1086 9.03494C 16.1955 9.3266 16.0207 9.64746 15.6994 9.73495L 13.3664 10.3474C 13.2209 10.3766 13.0461 10.3474 12.8996 10.2599L 11.5578 10.085L 12.3166 12.0974ZM 8.67112 8.24746L 10.3049 12.5933L 11.1213 12.3016L 10.1008 9.58911C 10.0129 9.38494 10.0715 9.18078 10.1877 9.00579C 10.3049 8.85995 10.509 8.77246 10.7131 8.8016L 13.2502 9.15161L 13.3088 9.15161L 14.8254 8.74328L 12.842 1.30578L 11.6174 1.62661L 11.7922 2.2391C 11.8508 2.44329 11.7629 2.6766 11.6174 2.82244L 10.7424 3.63913C 10.6545 3.72662 10.509 3.78494 10.3625 3.78494L 8.02952 3.81411L 8.02952 4.68911L 10.9172 4.65994L 11.4416 4.22244C 11.5881 4.07663 11.7922 4.01828 11.9963 4.07663C 12.2004 4.13494 12.3459 4.28079 12.4045 4.48495L 13.1916 7.45996C 13.2502 7.63494 13.1916 7.83911 13.0754 7.98495C 12.9299 8.13079 12.7541 8.21829 12.55 8.18911L 9.86741 7.80996L 8.67112 8.24746Z"/>

</defs>
</svg>

