<svg width="20" height="20" viewBox="0 0 20 20" version="1.1" xmlns="http://www.w3.org/2000/svg" xmlns:xlink="http://www.w3.org/1999/xlink">
<g data-name="Canvas" fill="none">
<g data-name="Group">
<g data-name="Ellipse">
<circle cx="10" cy="10" r="10" fill="#2D5FA3"/>
</g>
<g data-name="13 820 &#226;&#130;&#189;">
<path d="M 0 4.39369L 1.05839 4.39369L 1.05839 0L 3.78634 0C 4.29317 0 4.75528 0.0550933 5.17267 0.16528C 5.59006 0.266284 5.94783 0.426973 6.24596 0.647346C 6.5441 0.858537 6.77764 1.12941 6.94658 1.45997C 7.11553 1.79053 7.2 2.18537 7.2 2.64448C 7.2 3.10359 7.11056 3.50301 6.93168 3.84275C 6.7528 4.1825 6.50932 4.46714 6.20124 4.6967C 5.89317 4.91707 5.53043 5.08235 5.11304 5.19254C 4.69565 5.30273 4.24348 5.35782 3.75652 5.35782L 2.25093 5.35782L 2.25093 6.74892L 4.65093 6.74892L 4.65093 7.65796L 2.25093 7.65796L 2.25093 9.6L 1.05839 9.6L 1.05839 7.65796L 0 7.65796L 0 6.74892L 1.05839 6.74892L 1.05839 5.35782L 0 5.35782L 0 4.39369ZM 3.78634 4.39369C 4.47205 4.39369 5.0087 4.25136 5.39627 3.96671C 5.79379 3.67288 5.99255 3.23214 5.99255 2.64448C 5.99255 2.05681 5.79379 1.62984 5.39627 1.36356C 5.0087 1.09727 4.47205 0.964132 3.78634 0.964132L 2.25093 0.964132L 2.25093 4.39369L 3.78634 4.39369Z" transform="translate(6.3999 5.6)" fill="#F7F7F7"/>
</g>
</g>
</g>
</svg>

