<svg xmlns="http://www.w3.org/2000/svg" xmlns:xlink="http://www.w3.org/1999/xlink" width="40" height="40" viewBox="0 0 40 40">
    <g fill="none" data-name="Group 2">
        <circle cx="20" cy="20" r="20" fill="#2D5FA3" data-name="Ellipse"/>
        <use fill="#fff" data-name="Лучший комплект" transform="rotate(-15 63.888 -7.044)" xlink:href="#a"/>
    </g>
    <defs>
        <path id="a" d="M1.034 10.731V9.17c.283.238.59.417.923.537.332.117.667.176 1.006.176.198 0 .37-.018.517-.054.15-.036.274-.085.371-.146a.574.574 0 0 0 .298-.508.607.607 0 0 0-.117-.366 1.247 1.247 0 0 0-.322-.298 3.222 3.222 0 0 0-.479-.264c-.185-.085-.386-.17-.6-.259-.547-.228-.956-.506-1.226-.835-.267-.328-.4-.726-.4-1.191 0-.365.073-.677.22-.938.146-.263.344-.48.595-.649.254-.17.547-.293.879-.371a4.418 4.418 0 0 1 1.055-.122c.364 0 .686.023.966.068.284.043.544.11.782.2v1.46a2.745 2.745 0 0 0-.81-.366 3.02 3.02 0 0 0-.85-.122c-.18 0-.342.018-.489.054a1.21 1.21 0 0 0-.371.141.706.706 0 0 0-.234.225.566.566 0 0 0 .01.605c.061.092.15.18.263.264.114.082.252.163.415.244.163.078.347.16.552.244.28.118.53.243.752.376.224.13.417.279.576.445.16.166.282.356.366.571.085.212.127.459.127.742 0 .39-.075.72-.224.987a1.81 1.81 0 0 1-.601.644c-.254.163-.55.28-.889.352-.335.071-.69.107-1.064.107-.384 0-.75-.033-1.099-.098a3.306 3.306 0 0 1-.898-.293zM14.119 11H12.4l-.498-1.558h-2.49L8.919 11h-1.71l2.55-7.002h1.87L14.119 11zM11.54 8.231l-.752-2.353a3.07 3.07 0 0 1-.117-.63h-.04a2.667 2.667 0 0 1-.122.61L9.75 8.231h1.792zM20.163 11h-4.17V3.998h1.577v5.723h2.593V11zm6.146 0H22.11V3.998h4.038v1.284h-2.46V6.84h2.29v1.28h-2.29v1.6h2.621V11z"/>
    </defs>
</svg>
