<svg xmlns="http://www.w3.org/2000/svg" xmlns:xlink="http://www.w3.org/1999/xlink" width="31" height="34" viewBox="0 0 31 34">
    <g fill="none" data-name="Viber">
        <path fill="#fff" d="M4 4h23v21H4z" data-name="Rectangle"/>
        <use fill="#6F3FAA" data-name="Vector" xlink:href="#a"/>
    </g>
    <defs>
        <path id="a" d="M30.102 7.507c-.577-2.061-1.719-3.69-3.39-4.842C24.6 1.207 22.172.694 20.076.38c-2.9-.433-5.527-.494-8.033-.188C9.698.48 7.93.94 6.318 1.681 3.158 3.136 1.261 5.489.682 8.674a43.544 43.544 0 0 0-.583 4.279c-.253 3.083-.023 5.811.704 8.34.71 2.466 1.946 4.227 3.783 5.385.467.295 1.066.508 1.646.713.329.116.649.228.911.353.242.112.242.132.24.334-.02 1.753 0 5.189 0 5.189l.005.733h1.315l.213-.208c.141-.133 3.4-3.286 4.561-4.556l.159-.176c.199-.23.199-.23.404-.234 1.568-.032 3.171-.092 4.762-.179 1.93-.104 4.164-.291 6.268-1.17 1.927-.805 3.334-2.084 4.178-3.799.883-1.79 1.404-3.727 1.6-5.924.346-3.863.101-7.215-.746-10.247zM23.165 22.53c-.485.788-1.205 1.337-2.056 1.692-.623.26-1.257.205-1.871-.055-5.14-2.18-9.174-5.612-11.838-10.55-.551-1.016-.932-2.124-1.37-3.198-.09-.22-.083-.48-.124-.722.038-1.735 1.367-2.714 2.71-3.009.514-.115.97.067 1.35.433a11.83 11.83 0 0 1 2.517 3.485c.274.575.15 1.083-.318 1.51a4.29 4.29 0 0 1-.305.251c-1.067.803-1.223 1.412-.655 2.622.97 2.059 2.578 3.442 4.657 4.299.548.225 1.064.113 1.482-.332.057-.058.12-.116.161-.185.819-1.368 2.01-1.233 3.108-.453.721.514 1.422 1.057 2.134 1.58 1.087.799 1.078 1.55.418 2.632zM16.346 8.87c-.242 0-.484.02-.724.06a.74.74 0 0 1-.242-1.457 5.69 5.69 0 0 1 .966-.081c3.198 0 5.798 2.604 5.798 5.806 0 .326-.026.652-.08.967a.739.739 0 1 1-1.457-.242 4.332 4.332 0 0 0-4.261-5.053zm3.584 4.435a.74.74 0 0 1-.738.739.74.74 0 0 1-.738-.74 2.22 2.22 0 0 0-2.215-2.217.74.74 0 0 1 0-1.478 3.697 3.697 0 0 1 3.69 3.696zm4.215 1.643a.739.739 0 1 1-1.442-.33c.107-.47.162-.958.162-1.449 0-3.592-2.92-6.516-6.507-6.516-.49 0-.978.055-1.448.161a.735.735 0 0 1-.882-.557.736.736 0 0 1 .556-.883 7.912 7.912 0 0 1 1.774-.2c4.402 0 7.983 3.586 7.983 7.995 0 .6-.066 1.198-.196 1.778z"/>
    </defs>
</svg>
