<svg width="35" height="35" viewBox="0 0 35 35" version="1.1" xmlns="http://www.w3.org/2000/svg" xmlns:xlink="http://www.w3.org/1999/xlink">
<g data-name="Canvas" fill="none">
<g data-name="Whatsapp">
<g data-name="Icon Shape 1">
<g data-name="Vector">
<use xlink:href="#path0" fill="url(#paint0_linear)"/>
</g>
</g>
<g data-name="WA Logo 1">
<g data-name="Group">
<g data-name="Vector">
<g transform="translate(5.29688 4.72253)">
<use xlink:href="#path1" fill="white"/>
</g>
</g>
</g>
</g>
</g>
</g>
<defs>

<linearGradient id="paint0_linear" x2="1" gradientUnits="userSpaceOnUse" gradientTransform="matrix(0 -35.0027 35.0027 0 -8.98973e-06 35.0027)">
<stop stop-color="#25CF43"/>
<stop offset="1" stop-color="#61FD7D"/>
</linearGradient>

<path id="path0" d="M 35 26.1182C 35 26.3099 34.994 26.7235 34.982 27.0471C 34.9521 27.8322 34.8921 28.845 34.7962 29.3065C 34.6524 30.0017 34.4426 30.655 34.161 31.2003C 33.8313 31.8476 33.4118 32.4229 32.9084 32.9204C 32.411 33.4178 31.8356 33.8373 31.1884 34.167C 30.643 34.4486 29.9837 34.6584 29.2825 34.8022C 28.8271 34.8921 27.8202 34.958 27.0411 34.982C 26.7175 34.994 26.3039 35 26.1122 35L 8.87586 35C 8.68408 35 8.27055 34.994 7.94692 34.982C 7.16182 34.9521 6.14897 34.8921 5.6875 34.7962C 4.99229 34.6524 4.33904 34.4426 3.79366 34.161C 3.1464 33.8313 2.57106 33.4118 2.07363 32.9084C 1.5762 32.411 1.15668 31.8356 0.827055 31.1884C 0.545377 30.643 0.335616 29.9837 0.191781 29.2825C 0.101884 28.8271 0.0359589 27.8202 0.0119863 27.0411C 0.00599315 26.7235 0 26.3099 0 26.1182L 0 8.88185C 0 8.69007 0.00599315 8.27654 0.0179795 7.95291C 0.0479452 7.16781 0.107877 6.15497 0.203767 5.69349C 0.347603 4.99829 0.557363 4.34503 0.839041 3.79966C 1.16866 3.1524 1.58818 2.57705 2.08562 2.07962C 2.58305 1.58219 3.15839 1.16267 3.80565 0.833048C 4.35103 0.55137 5.01027 0.34161 5.71147 0.197774C 6.16695 0.107877 7.1738 0.0419521 7.95291 0.0179795C 8.27654 0.00599315 8.69007 0 8.88185 0L 26.1182 0C 26.3099 0 26.7235 0.00599315 27.0471 0.0179795C 27.8322 0.0479452 28.845 0.107877 29.3065 0.203767C 30.0017 0.347603 30.655 0.557363 31.2003 0.839041C 31.8476 1.16866 32.4229 1.58819 32.9204 2.09161C 33.4178 2.58904 33.8373 3.16438 34.167 3.81164C 34.4486 4.35702 34.6584 5.01627 34.8022 5.71747C 34.8921 6.17295 34.958 7.17979 34.982 7.9589C 34.994 8.28253 35 8.69606 35 8.88784L 35 26.1182Z"/>
<path id="path1" fill-rule="evenodd" clip-rule="evenodd" d="M 21.4075 3.65582C 19.0522 1.30051 15.9178 1.82896e-07 12.5796 1.82896e-07C 5.69949 1.82896e-07 0.107877 5.5976 0.101883 12.4717C 0.101883 14.6712 0.677226 16.8168 1.76798 18.7046L 9.14482e-08 25.1712L 6.61644 23.4392C 8.43836 24.4341 10.488 24.9555 12.5796 24.9555L 12.5856 24.9555C 19.4598 24.9555 25.0574 19.3579 25.0634 12.4837C 25.0634 9.14555 23.7628 6.01113 21.4075 3.65582ZM 12.5856 22.8459C 10.7217 22.8459 8.89384 22.3425 7.30565 21.4015L 6.92808 21.1798L 3.00257 22.2106L 4.05137 18.387L 3.80565 17.9974C 2.76884 16.3493 2.21747 14.4375 2.21747 12.4777C 2.21747 6.76027 6.87414 2.10959 12.5916 2.10959C 15.3604 2.10959 17.9675 3.18836 19.9212 5.14812C 21.881 7.10788 22.9598 9.7149 22.9538 12.4837C 22.9478 18.1952 18.2971 22.8459 12.5856 22.8459ZM 18.2731 15.0848C 17.9615 14.9289 16.4272 14.1738 16.1455 14.0719C 15.8579 13.97 15.6541 13.9161 15.4444 14.2277C 15.2346 14.5394 14.6413 15.2406 14.4555 15.4503C 14.2757 15.6601 14.0899 15.6841 13.7783 15.5283C 13.4666 15.3724 12.4598 15.0428 11.2731 13.982C 10.3442 13.155 9.72089 12.1361 9.5411 11.8245C 9.3613 11.5128 9.52312 11.345 9.67894 11.1892C 9.81678 11.0514 9.99058 10.8236 10.1464 10.6438C 10.3022 10.464 10.3562 10.3322 10.458 10.1224C 10.5599 9.91267 10.512 9.73288 10.4341 9.57705C 10.3562 9.42123 9.73288 7.88699 9.47517 7.2637C 9.22346 6.65839 8.96575 6.7363 8.77397 6.73031C 8.59418 6.71832 8.38442 6.71832 8.17466 6.71832C 7.9649 6.71832 7.62928 6.79623 7.34161 7.10788C 7.05394 7.41952 6.25086 8.17466 6.25086 9.7089C 6.25086 11.2432 7.36558 12.7235 7.5214 12.9332C 7.67723 13.143 9.72089 16.2894 12.8493 17.6378C 13.5925 17.9615 14.1738 18.1533 14.6293 18.2971C 15.3784 18.5368 16.0557 18.5009 16.595 18.4229C 17.1943 18.333 18.4409 17.6678 18.6986 16.9426C 18.9563 16.2175 18.9563 15.5882 18.8784 15.4623C 18.7885 15.3185 18.5848 15.2406 18.2731 15.0848Z"/>

</defs>
</svg>

