<svg xmlns="http://www.w3.org/2000/svg" width="17" height="15" viewBox="0 0 17 15">
    <path fill="none" stroke="#2D5FA3" stroke-miterlimit="8" d="M8.5 2.49l-.345-.328C7.556 1.592 6.098.5 4.407.5 2.238.5.5 2.195.5 4.2c0 1.244.483 2.512 1.252 3.736.766 1.222 1.797 2.368 2.842 3.358a30.097 30.097 0 0 0 3.889 3.098l.082-.061a38.194 38.194 0 0 0 3.833-3.307c1.049-1.04 2.084-2.214 2.854-3.407C16.027 6.416 16.5 5.246 16.5 4.2c0-2.005-1.738-3.7-3.907-3.7-1.69 0-3.15 1.091-3.748 1.662l-.345.329z" clip-rule="evenodd"/>
</svg>
